<?xml version="1.0" encoding="utf-8"?>
<!-- Generator: Adobe Illustrator 21.0.0, SVG Export Plug-In . SVG Version: 6.00 Build 0)  -->
<svg version="1.1" id="Layer_1" xmlns="http://www.w3.org/2000/svg" xmlns:xlink="http://www.w3.org/1999/xlink" x="0px" y="0px"
	 viewBox="0 0 778.9 107" style="enable-background:new 0 0 778.9 107;" xml:space="preserve">
<style type="text/css">
	.st0{enable-background:new    ;}
</style>
<title>Shared Link</title>
<desc>Created with Sketch.</desc>
<g id="_x33_.-Facebook">
	<g id="Shared-Link">
		<g class="st0">
			<path d="M77.9,14.5H45.8v90.7H32.1V14.5H0V3h77.9V14.5z"/>
			<path d="M75.7,69.3c0-23.5,13.2-37.7,33.6-37.7s33.6,14.3,33.6,37.7S129.6,107,109.3,107S75.7,92.7,75.7,69.3z M129.9,69.3
				c0-17.9-7.6-27.1-20.6-27.1c-13,0-20.6,9.2-20.6,27.1s7.6,27.1,20.6,27.1C122.3,96.3,129.9,87.1,129.9,69.3z"/>
			<path d="M173.8,33.3v12.5c4-9.6,10.9-14.5,20.6-14.5c9.9,0,17.1,5.2,20.4,14.7c4.8-9.8,12.1-14.7,21.9-14.7
				c13.8,0,21.9,9.9,21.9,26.8v47.2h-12.2V59c0-11.2-4.6-17-13.7-17c-10.2,0-16.1,7.5-16.1,20.6v42.6h-12.2V58.5
				c0-10.5-4.9-16.4-13.5-16.4c-10.1,0-16.3,8.1-16.3,21.2v42h-12.2v-72H173.8z"/>
			<path d="M313.3,69.3c0-23.5,13.2-37.7,33.6-37.7s33.6,14.3,33.6,37.7S367.2,107,346.9,107S313.3,92.7,313.3,69.3z M367.5,69.3
				c0-17.9-7.6-27.1-20.6-27.1s-20.6,9.2-20.6,27.1s7.6,27.1,20.6,27.1S367.5,87.1,367.5,69.3z"/>
			<path d="M392.5,33.8c7.2-3.2,8.6-6.3,8.6-13.4V20H392V3h16.8v16c0,11.5-3,17-13,21.2L392.5,33.8z"/>
			<path d="M462.1,53.7L447,70.4v34.8h-13.7V3H447v50.7L491.9,3H509l-36.7,40l-0.9,0.9l40.8,61.3h-16L462.1,53.7z"/>
			<path d="M580.6,72.9h-51.1c0.1,14.1,8.6,23.3,21.5,23.3c9.2,0,16-4.9,19.2-13.7l10.1,4.5c-5,13.1-15.6,20-30.1,20
				c-20.6,0-32.8-13.1-32.8-36.9c0-24,12.1-38.6,32.7-38.6c19.4,0,30.7,11.1,30.7,32.7V72.9z M568.2,61.3c0-13.2-6.8-20.2-18.6-20.2
				c-12.7,0-19.9,8.2-20.2,21.7h38.7V61.3z"/>
			<path d="M657.6,72.9h-51.1c0.1,14.1,8.6,23.3,21.5,23.3c9.2,0,16-4.9,19.2-13.7l10.1,4.5c-5,13.1-15.6,20-30.1,20
				c-20.6,0-32.8-13.1-32.8-36.9c0-24,12.1-38.6,32.7-38.6c19.4,0,30.7,11.1,30.7,32.7V72.9z M645.3,61.3c0-13.2-6.8-20.2-18.6-20.2
				c-12.7,0-19.9,8.2-20.2,21.7h38.7V61.3z"/>
			<path d="M709.1,43.3h-18v61.9h-12.2V43.3h-13.2V33.3h13.2V21.9c0-13.1,8.2-21.9,21-21.9c3.5,0,6.5,0.3,9.2,1v10.5
				c-2.6-0.4-5.3-0.7-7.6-0.7c-7.3,0-10.4,4-10.4,12.8v9.6h18V43.3z"/>
			<path d="M778.9,72.9h-51.1c0.1,14.1,8.6,23.3,21.5,23.3c9.2,0,16-4.9,19.2-13.7l10.1,4.5c-5,13.1-15.6,20-30.1,20
				c-20.6,0-32.8-13.1-32.8-36.9c0-24,12.1-38.6,32.7-38.6c19.4,0,30.7,11.1,30.7,32.7V72.9z M766.5,61.3c0-13.2-6.8-20.2-18.6-20.2
				c-12.7,0-19.9,8.2-20.2,21.7h38.7V61.3z"/>
		</g>
	</g>
</g>
</svg>
