<svg style="position: absolute; width: 0; height: 0; overflow: hidden;" version="1.1" xmlns="http://www.w3.org/2000/svg" xmlns:xlink="http://www.w3.org/1999/xlink">
<defs>
<symbol id="icon-plus3" viewBox="0 0 16 16">
<title>plus3</title>
<path d="M15 7h-6v-6h-2v6h-6v2h6v6h2v-6h6z"></path>
</symbol>
<symbol id="icon-cross2" viewBox="0 0 16 16">
<title>cross2</title>
<path d="M13.957 3.457l-1.414-1.414-4.543 4.543-4.543-4.543-1.414 1.414 4.543 4.543-4.543 4.543 1.414 1.414 4.543-4.543 4.543 4.543 1.414-1.414-4.543-4.543z"></path>
</symbol>
<symbol id="icon-captions-off" viewBox="0 0 32 32">
<title>captions-off</title>
<path d="M1.778 1.778h28.444c1.067 0 1.778 0.711 1.778 1.778v19.556c0 1.067-0.711 1.778-1.778 1.778h-8.178l-4.8 4.8c-0.356 0.356-0.711 0.533-1.244 0.533s-0.889-0.178-1.244-0.533l-4.8-4.8h-8.178c-1.067 0-1.778-0.711-1.778-1.778v-19.556c0-1.067 0.711-1.778 1.778-1.778zM9.813 19.822c3.538 0 5.351-2.347 5.831-4.284l-2.293-0.693c-0.338 1.173-1.387 2.578-3.538 2.578-2.027 0-3.911-1.476-3.911-4.16 0-2.862 1.991-4.213 3.876-4.213 2.187 0 3.164 1.333 3.467 2.542l2.311-0.729c-0.498-2.044-2.293-4.178-5.778-4.178-3.378 0-6.418 2.56-6.418 6.578s2.933 6.56 6.453 6.56zM23.271 19.822c3.538 0 5.351-2.347 5.831-4.284l-2.293-0.693c-0.338 1.173-1.387 2.578-3.538 2.578-2.027 0-3.911-1.476-3.911-4.16 0-2.862 1.991-4.213 3.876-4.213 2.187 0 3.164 1.333 3.467 2.542l2.311-0.729c-0.498-2.044-2.293-4.178-5.778-4.178-3.378 0-6.418 2.56-6.418 6.578s2.933 6.56 6.453 6.56z"></path>
</symbol>
<symbol id="icon-captions-on" viewBox="0 0 32 32">
<title>captions-on</title>
<path d="M1.778 1.778h28.444c1.067 0 1.778 0.711 1.778 1.778v19.556c0 1.067-0.711 1.778-1.778 1.778h-8.178l-4.8 4.8c-0.356 0.356-0.711 0.533-1.244 0.533s-0.889-0.178-1.244-0.533l-4.8-4.8h-8.178c-1.067 0-1.778-0.711-1.778-1.778v-19.556c0-1.067 0.711-1.778 1.778-1.778zM9.813 19.822c3.538 0 5.351-2.347 5.831-4.284l-2.293-0.693c-0.338 1.173-1.387 2.578-3.538 2.578-2.027 0-3.911-1.476-3.911-4.16 0-2.862 1.991-4.213 3.876-4.213 2.187 0 3.164 1.333 3.467 2.542l2.311-0.729c-0.498-2.044-2.293-4.178-5.778-4.178-3.378 0-6.418 2.56-6.418 6.578s2.933 6.56 6.453 6.56zM23.271 19.822c3.538 0 5.351-2.347 5.831-4.284l-2.293-0.693c-0.338 1.173-1.387 2.578-3.538 2.578-2.027 0-3.911-1.476-3.911-4.16 0-2.862 1.991-4.213 3.876-4.213 2.187 0 3.164 1.333 3.467 2.542l2.311-0.729c-0.498-2.044-2.293-4.178-5.778-4.178-3.378 0-6.418 2.56-6.418 6.578s2.933 6.56 6.453 6.56z"></path>
</symbol>
<symbol id="icon-enter-fullscreen" viewBox="0 0 32 32">
<title>enter-fullscreen</title>
<path d="M17.778 5.333h6.4l-7.111 7.111 2.489 2.489 7.111-7.111v6.4h3.556v-12.444h-12.444z"></path>
<path d="M12.444 17.067l-7.111 7.111v-6.4h-3.556v12.444h12.444v-3.556h-6.4l7.111-7.111z"></path>
</symbol>
<symbol id="icon-exit-fullscreen" viewBox="0 0 32 32">
<title>exit-fullscreen</title>
<path d="M1.778 21.333h6.4l-7.111 7.111 2.489 2.489 7.111-7.111v6.4h3.556v-12.444h-12.444z"></path>
<path d="M28.444 1.067l-7.111 7.111v-6.4h-3.556v12.444h12.444v-3.556h-6.4l7.111-7.111z"></path>
</symbol>
<symbol id="icon-fast-forward" viewBox="0 0 32 32">
<title>fast-forward</title>
<path d="M14 12.749l-14-10.971v28.444l14-10.971v10.971l18-14.222-18-14.222z"></path>
</symbol>
<symbol id="icon-muted" viewBox="0 0 32 32">
<title>muted</title>
<path d="M22.044 22.222l3.733-3.733 3.733 3.733 2.489-2.489-3.733-3.733 3.733-3.733-2.489-2.489-3.733 3.733-3.733-3.733-2.489 2.489 3.733 3.733-3.733 3.733z"></path>
<path d="M6.73 10.681h-5.46c-0.762 0-1.27 0.535-1.27 1.337v8.021c0 0.802 0.508 1.337 1.27 1.337h5.46l7.238 6.858c0.889 0.535 2.032 0 2.032-1.070v-22.272c0-1.070-1.143-1.738-2.032-1.070l-7.238 6.858z"></path>
</symbol>
<symbol id="icon-pause" viewBox="0 0 32 32">
<title>pause</title>
<path d="M10.667 1.778h-5.333c-1.067 0-1.778 0.711-1.778 1.778v24.889c0 1.067 0.711 1.778 1.778 1.778h5.333c1.067 0 1.778-0.711 1.778-1.778v-24.889c0-1.067-0.711-1.778-1.778-1.778v0z"></path>
<path d="M21.333 1.778c-1.067 0-1.778 0.711-1.778 1.778v24.889c0 1.067 0.711 1.778 1.778 1.778h5.333c1.067 0 1.778-0.711 1.778-1.778v-24.889c0-1.067-0.711-1.778-1.778-1.778h-5.333z"></path>
</symbol>
<symbol id="icon-play" viewBox="0 0 32 32">
<title>play</title>
<path d="M28.444 16l-24.889-16v32z"></path>
</symbol>
<symbol id="icon-restart" viewBox="0 0 32 32">
<title>restart</title>
<path d="M17.244 2.133l1.244 11.378 3.733-3.733c3.378 3.378 3.378 9.067 0 12.444-1.6 1.778-3.911 2.667-6.222 2.667s-4.622-0.889-6.222-2.667c-3.378-3.378-3.378-9.067 0-12.444 1.067-1.067 2.489-1.956 4.089-2.311l-1.067-3.378c-2.133 0.533-4.089 1.6-5.689 3.2-4.8 4.8-4.8 12.622 0 17.6 2.311 2.311 5.511 3.556 8.711 3.556 3.378 0 6.4-1.244 8.711-3.556 4.8-4.8 4.8-12.622 0-17.6l3.911-3.911-11.2-1.244z"></path>
</symbol>
<symbol id="icon-rewind" viewBox="0 0 32 32">
<title>rewind</title>
<path d="M18 1.778l-18 14.222 18 14.222v-10.971l14 10.971v-28.444l-14 10.971z"></path>
</symbol>
<symbol id="icon-volume" viewBox="0 0 32 32">
<title>volume</title>
<path d="M27.733 5.867c-0.711-0.711-1.778-0.711-2.489 0s-0.711 1.778 0 2.489c2.133 2.133 3.2 4.8 3.2 7.644s-1.067 5.511-3.2 7.644c-0.711 0.711-0.711 1.778 0 2.489 0.356 0.356 0.889 0.533 1.244 0.533 0.533 0 0.889-0.178 1.244-0.533 2.667-2.667 4.267-6.222 4.267-10.133s-1.6-7.467-4.267-10.133v0z"></path>
<path d="M20.057 9.39c-0.668 0.668-0.668 1.671 0 2.339 1.307 1.307 1.769 2.592 1.769 4.27 0 1.664-0.757 3.408-1.769 4.421-0.668 0.668-0.668 1.671 0 2.339 0.258 0.258 1.13 0.466 1.809 0.278 0.2-0.055 0.384-0.145 0.53-0.278 2.090-1.902 2.726-4.699 2.726-6.761 0-0.302-0.005-0.604-0.021-0.907-0.093-1.763-0.567-3.564-2.705-5.703-0.668-0.668-1.671-0.668-2.339 0z"></path>
<path d="M6.73 10.681h-5.46c-0.762 0-1.27 0.535-1.27 1.337v8.021c0 0.802 0.508 1.337 1.27 1.337h5.46l7.238 6.858c0.889 0.535 2.032 0 2.032-1.070v-22.272c0-1.070-1.143-1.738-2.032-1.070l-7.238 6.858z"></path>
</symbol>
</defs>
</svg>
